# xmcd CD database file
#
# Track frame offsets:
#	150
#	16047
#	36461
#	53422
#	70221
#	89124
#	104816
#	123527
#	138750
#	159468
#	173408
#	193141
#	208370
#	225331
#	245990
#	261675
#	277692
#	292949
#	311252
#	329513
#	344081
#
# Disc length: 4782 seconds
#
# Revision: 1
# Processed by: cddbd v1.5.2PL0 Copyright (c) Steve Scherf et al.
# Submitted via: CDex 1.51
#
DISCID=4112ac15
DTITLE=Various Artist - ZM-PB-CD-1
DYEAR=1900
DGENRE=Blues
TTITLE0=The Saturdays - All Fired Up 
TTITLE1=Robbie Williams - Angels
TTITLE2=Justin Bieber - Baby [Justin's Part Only] 
TTITLE3=Britney Spears - Baby One More Time
TTITLE4=Amy Winehouse - Back To Black
TTITLE5=Aqua - Barbie Girl [Duet]
TTITLE6=Christina Aguilera - Beautiful 
TTITLE7=Travie McCoy feat. Bruno Mars - Billionaire
TTITLE8=Lady Gaga - Born This Way 
TTITLE9=Justin Bieber - Boyfriend
TTITLE10=Rihanna - California King Bed
TTITLE11=Carly Rae Jepsen - Call Me Maybe
TTITLE12=Little Mix - Cannonball 
TTITLE13=Snow Patrol - Chasing Cars
TTITLE14=The Wanted - Chasing The Sun
TTITLE15=Olly Murs - Dance With Me Tonight 
TTITLE16=JLS - Do You Feel What I Feel 
TTITLE17=Jessie J - Domino
TTITLE18=Glee Cast - Don't Stop Believin' 
TTITLE19=Loreen - Euphoria
TTITLE20=Katy Perry - I Kissed A Girl 
EXTD=
EXTT0=
EXTT1=
EXTT2=
EXTT3=
EXTT4=
EXTT5=
EXTT6=
EXTT7=
EXTT8=
EXTT9=
EXTT10=
EXTT11=
EXTT12=
EXTT13=
EXTT14=
EXTT15=
EXTT16=
EXTT17=
EXTT18=
EXTT19=
EXTT20=
PLAYORDER=
